<?xml version="1.0" encoding="UTF-8" standalone="no"?> <svg xmlns:inkscape="http://www.inkscape.org/namespaces/inkscape" xmlns:sodipodi="http://sodipodi.sourceforge.net/DTD/sodipodi-0.dtd" xmlns="http://www.w3.org/2000/svg" xmlns:svg="http://www.w3.org/2000/svg" xmlns:rdf="http://www.w3.org/1999/02/22-rdf-syntax-ns#" width="64" height="64" viewBox="0 0 16.933333 16.933334" version="1.1" id="svg8" inkscape:version="1.2 (1:1.2.1+202207142221+cd75a1ee6d)" sodipodi:docname="01 tool_line.tar">
  <defs id="defs2">
    <inkscape:path-effect effect="fillet_chamfer" id="path-effect6711" is_visible="true" lpeversion="1" nodesatellites_param="F,0,0,1,0,0,0,1 @ F,0,0,1,0,0,0,1 @ F,0,0,1,0,0,0,1 @ F,0,0,1,0,0,0,1 @ F,0,0,1,0,0,0,1 @ F,0,0,1,0,0,0,1 @ F,0,0,1,0,0,0,1 @ F,0,0,1,0,0,0,1 @ F,0,0,1,0,0,0,1 @ F,0,0,1,0,0,0,1 @ F,0,0,1,0,0,0,1 @ F,0,0,1,0,0,0,1 @ F,0,0,1,0,0,0,1 @ F,0,0,1,0,0,0,1 @ F,0,0,1,0,0,0,1 @ F,0,0,1,0,0,0,1 @ F,0,0,1,0,0,0,1 @ F,0,0,1,0,0,0,1 @ F,0,0,1,0,0,0,1 @ F,0,0,1,0,0,0,1 | F,0,0,1,0,0,0,1 @ F,0,0,1,0,0,0,1 @ F,0,1,1,0,0.23476692,0,1 @ F,0,0,1,0,0.23476692,0,1 @ F,0,0,1,0,0,0,1 @ F,0,0,1,0,0,0,1 @ F,0,0,1,0,0,0,1 @ F,0,0,1,0,0,0,1 @ F,0,0,1,0,0,0,1 @ F,0,0,1,0,0,0,1" unit="px" method="auto" mode="F" radius="0" chamfer_steps="1" flexible="false" use_knot_distance="true" apply_no_radius="true" apply_with_radius="true" only_selected="false" hide_knots="false"/>
    <inkscape:path-effect effect="fillet_chamfer" id="path-effect18338" is_visible="true" lpeversion="1" nodesatellites_param="F,0,0,1,0,0.033055739,0,1 @ F,0,0,1,0,0,0,1 @ F,0,0,1,0,0,0,1 @ F,0,0,1,0,0,0,1 @ F,0,0,1,0,0,0,1" unit="px" method="auto" mode="F" radius="0" chamfer_steps="1" flexible="false" use_knot_distance="true" apply_no_radius="true" apply_with_radius="true" only_selected="false" hide_knots="false"/>
    <inkscape:path-effect effect="fillet_chamfer" id="path-effect14523" is_visible="true" lpeversion="1" nodesatellites_param="F,0,0,1,0,0.041694285,0,1 @ F,0,0,1,0,0,0,1 @ F,0,0,1,0,0,0,1 @ F,0,0,1,0,0,0,1" unit="px" method="auto" mode="F" radius="0" chamfer_steps="1" flexible="false" use_knot_distance="true" apply_no_radius="true" apply_with_radius="true" only_selected="false" hide_knots="false"/>
    <inkscape:path-effect effect="fillet_chamfer" id="path-effect40290" is_visible="true" lpeversion="1" nodesatellites_param="F,0,0,1,0,0.08344418,0,1 @ F,0,0,1,0,0,0,1 @ F,0,0,1,0,0,0,1 @ F,0,0,1,0,0,0,1 @ F,0,0,1,0,0,0,1 @ F,0,0,1,0,0,0,1 @ F,0,0,1,0,0,0,1" unit="px" method="auto" mode="F" radius="0" chamfer_steps="1" flexible="false" use_knot_distance="true" apply_no_radius="true" apply_with_radius="true" only_selected="false" hide_knots="false"/>
    <inkscape:path-effect effect="fillet_chamfer" id="path-effect38836" is_visible="true" lpeversion="1" nodesatellites_param="F,0,0,1,0,0.085281661,0,1 @ F,0,0,1,0,0,0,1 @ F,0,0,1,0,0,0,1 @ F,0,0,1,0,0,0,1 @ F,0,0,1,0,0,0,1 @ F,0,0,1,0,0,0,1 @ F,0,0,1,0,0,0,1" unit="px" method="auto" mode="F" radius="0" chamfer_steps="1" flexible="false" use_knot_distance="true" apply_no_radius="true" apply_with_radius="true" only_selected="false" hide_knots="false"/>
    <inkscape:path-effect effect="fillet_chamfer" id="path-effect23508" is_visible="true" lpeversion="1" nodesatellites_param="F,0,0,1,0,0,0,1 @ F,0,0,1,0,0,0,1 @ F,0,0,1,0,0,0,1 @ F,0,0,1,0,0,0,1 @ F,0,0,1,0,0,0,1 @ F,0,0,1,0,0,0,1 @ F,0,0,1,0,0,0,1 @ F,0,0,1,0,0,0,1" unit="px" method="auto" mode="F" radius="0" chamfer_steps="1" flexible="false" use_knot_distance="true" apply_no_radius="true" apply_with_radius="true" only_selected="false" hide_knots="false"/>
    <inkscape:path-effect effect="fillet_chamfer" id="path-effect14795" is_visible="true" lpeversion="1" nodesatellites_param="F,0,1,1,0,0.10352272,0,1 @ F,0,1,1,0,0.10352272,0,1 @ F,0,1,1,0,0.10352272,0,1 @ F,0,1,1,0,0.10352272,0,1 @ F,0,1,1,0,0.10352272,0,1 @ F,0,1,1,0,0.10352272,0,1 @ F,0,1,1,0,0.10352272,0,1 @ F,0,1,1,0,0.10352272,0,1 @ F,0,1,1,0,0.10352272,0,1 @ F,0,1,1,0,0.10352272,0,1 @ IF,0,0,1,0,0.10352272,0,1 @ F,0,1,1,0,0.10352272,0,1" unit="px" method="auto" mode="F" radius="0" chamfer_steps="1" flexible="false" use_knot_distance="true" apply_no_radius="true" apply_with_radius="true" only_selected="false" hide_knots="false"/>
    <inkscape:path-effect effect="fillet_chamfer" id="path-effect11186" is_visible="true" lpeversion="1" nodesatellites_param="F,0,1,1,0,0.20186345,0,1 @ F,0,0,1,0,0,0,1 @ F,0,0,1,0,0,0,1 @ F,0,0,1,0,0.20186345,0,1" unit="px" method="auto" mode="F" radius="0" chamfer_steps="1" flexible="false" use_knot_distance="true" apply_no_radius="true" apply_with_radius="true" only_selected="false" hide_knots="false"/>
    <inkscape:path-effect effect="fillet_chamfer" id="path-effect9731" is_visible="true" lpeversion="1" nodesatellites_param="F,0,0,1,0,0.12549777,0,1 @ F,0,0,1,0,0,0,1 @ F,0,0,1,0,0,0,1 @ F,0,0,1,0,0.20914322,0,1" unit="px" method="auto" mode="F" radius="0" chamfer_steps="1" flexible="false" use_knot_distance="true" apply_no_radius="true" apply_with_radius="true" only_selected="false" hide_knots="false"/>
    <inkscape:path-effect fuse_tolerance="0" vertical_pattern="true" prop_units="false" tang_offset="0" normal_offset="0" spacing="4" scale_y_rel="false" prop_scale="1" copytype="repeated_stretched" pattern="m 0.5367033,0.52921956 h 4.479679" is_visible="true" id="path-effect1328" effect="skeletal" lpeversion="0" hide_knot="false"/>
    <inkscape:path-effect fuse_tolerance="0" vertical_pattern="true" prop_units="false" tang_offset="0" normal_offset="0" spacing="4" scale_y_rel="false" prop_scale="1" copytype="repeated_stretched" pattern="m 0.5367033,0.52921956 h 4.479679" is_visible="true" id="path-effect1324" effect="skeletal" lpeversion="0" hide_knot="false"/>
    <inkscape:path-effect fuse_tolerance="0" vertical_pattern="true" prop_units="false" tang_offset="0" normal_offset="0" spacing="4" scale_y_rel="false" prop_scale="1" copytype="repeated_stretched" pattern="m 0.5367033,0.52921956 h 4.479679" is_visible="true" id="path-effect1319" effect="skeletal" lpeversion="0" hide_knot="false"/>
    <inkscape:path-effect effect="skeletal" id="path-effect1282" is_visible="true" pattern="m 0.5367033,0.52921956 h 4.479679" copytype="repeated_stretched" prop_scale="1" scale_y_rel="false" spacing="4" normal_offset="0" tang_offset="0" prop_units="false" vertical_pattern="true" fuse_tolerance="0" lpeversion="0" hide_knot="false"/>
  </defs>
  <sodipodi:namedview inkscape:guide-bbox="true" id="base" pagecolor="#ffffff" bordercolor="#666666" borderopacity="1.0" inkscape:pageopacity="0.0" inkscape:pageshadow="2" inkscape:zoom="1.0227259" inkscape:cx="53.777851" inkscape:cy="296.75596" inkscape:document-units="px" inkscape:current-layer="layer43" showgrid="false" units="px" inkscape:window-width="1920" inkscape:window-height="1023" inkscape:window-x="0" inkscape:window-y="0" inkscape:window-maximized="1" inkscape:object-paths="true" inkscape:snap-global="true" inkscape:snap-smooth-nodes="false" inkscape:document-rotation="0" showguides="true" inkscape:pagecheckerboard="0" inkscape:lockguides="false" inkscape:showpageshadow="2" inkscape:deskcolor="#d1d1d1">
    <inkscape:grid type="xygrid" id="grid2157" empspacing="1" originx="0" originy="0"/>
  </sodipodi:namedview>
  <metadata id="metadata5">
    <rdf:RDF/>
  </metadata>
<g inkscape:groupmode="layer" id="layer9" inkscape:label="6. search" style="display:inline">
    <path id="path12982" style="color:#7A4141;fill:#7A4141;stroke-linecap:round;-inkscape-stroke:none" d="m 7.6822589,3.1742482 c -2.4951866,3.41e-4 -4.5297168,2.034247 -4.5294393,4.529439 a 0.52921795,0.52921795 0 0 0 0,0.0021 c 3.415e-4,2.4947628 2.0346768,4.5270318 4.5294393,4.5273728 1.0496909,1.8e-5 2.0418908,-0.363922 2.8298011,-0.994255 l 2.36523,2.36523 a 0.52916503,0.52916503 0 0 0 0.748275,0 0.52916503,0.52916503 0 0 0 0,-0.748274 l -2.369881,-2.369882 c 0.222829,-0.286151 0.413388,-0.6016518 0.564823,-0.9425778 A 0.52916503,0.52916503 0 0 0 11.55334,8.8442192 0.52916503,0.52916503 0 0 0 10.854158,9.1139702 C 10.682086,9.5013552 10.444677,9.8459132 10.158593,10.137163 9.5177656,10.789565 8.631755,11.174326 7.6822589,11.174309 5.7593568,11.174046 4.2114163,9.6266212 4.211153,7.7037202 c -2.138e-4,-1.923233 1.5478719,-3.470326 3.4711059,-3.470589 1.9235868,-2.09e-4 3.4708031,1.547017 3.4705891,3.470589 -1.91e-4,0.01256 3.22e-4,0.02491 0,0.03721 a 0.52916503,0.52916503 0 0 0 0.515731,0.542603 0.52916503,0.52916503 0 0 0 0.542602,-0.515214 c 4.97e-4,-0.01902 -2.55e-4,-0.03823 0,-0.05684 a 0.52921795,0.52921795 0 0 0 0,-5.17e-4 0.52921795,0.52921795 0 0 0 0,-5.17e-4 0.52921795,0.52921795 0 0 0 0,-5.17e-4 0.52921795,0.52921795 0 0 0 0,-5.16e-4 0.52921795,0.52921795 0 0 0 0,-5.17e-4 0.52921795,0.52921795 0 0 0 0,-5.17e-4 0.52921795,0.52921795 0 0 0 0,-5.17e-4 0.52921795,0.52921795 0 0 0 0,-5.16e-4 0.52921795,0.52921795 0 0 0 0,-5.17e-4 0.52921795,0.52921795 0 0 0 0,-5.17e-4 0.52921795,0.52921795 0 0 0 0,-5.17e-4 0.52921795,0.52921795 0 0 0 0,-5.17e-4 0.52921795,0.52921795 0 0 0 0,-5.16e-4 0.52921795,0.52921795 0 0 0 0,-5.17e-4 0.52921795,0.52921795 0 0 0 0,-5.17e-4 c 2.78e-4,-2.495619 -2.033295,-4.52971 -4.5289221,-4.529439 z"/>
  </g>
  </svg>