<?xml version="1.0" encoding="UTF-8"?>
<svg id="Lager_2" data-name="Lager 2" xmlns="http://www.w3.org/2000/svg" viewBox="0 0 47.09 47.97">
  <defs>
    <style>
      .cls-1 {
        fill: #492727;
      }

      .cls-1, .cls-2, .cls-3 {
        fill-rule: evenodd;
      }

      .cls-1, .cls-2, .cls-3, .cls-4 {
        stroke-width: 0px;
      }

      .cls-2 {
        fill: #fff;
      }

      .cls-3, .cls-4 {
        fill: #f7f6f0;
      }
    </style>
  </defs>
  <g id="Layer_1" data-name="Layer 1">
    <g>
      <g>
        <path class="cls-1" d="M0,30.4c1.96,4.2,5.89,8.28,8.76,12.52.58.85,2.02,3.77,3.01,4.26.38.19,1.73.15,2.69.21,4.84.29,9.04.11,13.58.26,3.05.1,5.5.48,7.56.25,2.95-4.18,11.68-16.44,11.49-16.72-3.37-5.1-10.62-16.48-14.95-19.42-1.33,0,.36,7.08-1.79,8.06,0,0-10.72.67-13.77.13,0,0-.55-8.82-1.57-8.16-1.23.79-6.51,4.8-7.46,6.09-3.19,4.35-5.07,8.51-7.55,12.51Z"/>
        <path class="cls-2" d="M22.37,15.51c3.82.03,7.39-.16,10.82.14,1.42.12,3,2.83,3.89,4.08,2.78,3.91,5.86,8.32,7.86,12.32-2.86,3.65-5.96,8.12-8.28,11.67-.43.66-.6,1.5-1.27,1.94-1,.64-6,.24-7.34.21-5.09-.1-10.14-.48-15.19-.31-3.8-4.83-7.03-9.78-10.81-14.61,1.73-4.13,4.81-7.89,7.9-12.58.58-.88,1.03-2.05,1.73-2.56M36.2,20.52c-.7-.98-2.26-3.82-3.51-3.77-6.52.22-13.82-.52-20.03-.23-3.71,4.19-6.48,9.09-9.2,13.53,1.85,3.59,4.51,7.09,6.97,10.68.65.95,1.81,2.97,2.85,3.45.58.26,1.69.13,2.69.21,6.54.52,13.07.43,19.06.13,2.96-3.92,6.37-8.54,8.61-12.73-2.33-3.48-4.89-7.69-7.43-11.27Z"/>
      </g>
      <g>
        <polygon class="cls-3" points="31.7 11.4 14.57 11.43 16.01 17.86 30.9 17.86 31.7 11.4"/>
        <line class="cls-4" x1="31.06" y1="16.62" x2="15.85" y2="16.19"/>
        <path class="cls-3" d="M16.01,17.86c-.75.48-7.27,5.62-9.25,11.73-.56,1.74,7.48,11.5,8.19,11.94,0,0,11.41,1.57,17.69-.18,2.64-.73,7.55-8.61,7.72-9.72l-9.46-13.76h-14.89Z"/>
      </g>
      <g>
        <path class="cls-1" d="M29.27.65c-2.97-2.97-7.38,7.07-6.19,8.71,1.17,1.62,3.24.04,4.69-2.09,1.22-1.79,3.42-4.69,1.5-6.62Z"/>
        <path class="cls-1" d="M28.68.49c-1.07-1.65-7.77,1.35-7.5,2.18.27.82,2.3.6,4.09.05,1.5-.46,4.1-1.16,3.41-2.23Z"/>
        <path class="cls-1" d="M28.41.77c-1.65,1.07,1.35,7.77,2.18,7.5.82-.27.6-2.3.05-4.09-.46-1.5-1.16-4.1-2.23-3.41Z"/>
        <path class="cls-1" d="M23.45,11.05c-3.55-.98-2.56,8.6-.94,9.33,1.6.72,2.49-1.38,2.67-3.63.15-1.9.57-5.06-1.73-5.7Z"/>
        <path class="cls-1" d="M25.67,22.31c-3.15-2.78-3.66,1.29-3.16,2.84.47,1.47,1.22,3.21,2.67,4.31.11-.09.25-.09.44.06,2.42-1.06.99-6.38.05-7.21Z"/>
        <path class="cls-1" d="M27.95,30c-1.28-.49-2.28-.25-2.68,1.57-.27,1.21,1.87,5.36,2.88,5.85.67.33,1.46.25,2.01-.3,1.36-1.36-.78-6.58-2.2-7.12Z"/>
      </g>
    </g>
  </g>
</svg>