<?xml version="1.0" encoding="UTF-8"?>
<svg id="Lager_2" data-name="Lager 2" xmlns="http://www.w3.org/2000/svg" viewBox="0 0 72.93 88.27">
  <defs>
    <style>
      .cls-1 {
        fill: #492727;
      }

      .cls-1, .cls-2, .cls-3 {
        fill-rule: evenodd;
        stroke-width: 0px;
      }

      .cls-2 {
        fill: #ffa31d;
      }

      .cls-3 {
        fill: #fff;
      }
    </style>
  </defs>
  <g id="Layer_1" data-name="Layer 1">
    <g>
      <path class="cls-1" d="m65.44,80.07c2.01-3.34,2.96-7.42,4.52-11.31.99-4.75,2.23-9.81,2.69-15.12.99-11.59-.63-23.1-4.95-30.67-3.06-5.37-4-7.63-7.74-11.17,3.54-.16,2.67-4.71,2.23-5.17-1.21-.92-5.34-3.19-7.14-3.35C45.31,2.37,30.19-.78,20.69.18c-3.47.35-6.29,8.67,36.69,11.62-2.33.64-25.45.4-34-3.87-6.74-.22-12.45,3.99-13.21,4.72-1.92,1.82-3.53,4.7-4.81,7.21C1.31,27.85-.79,39.35.27,50.67c.68,7.28,2.69,13.44,5.23,19.08,1.3,2.9,2.98,5.25,4.52,7.63,1.29,1.99,2.54,3.55,4.1,4.95.55.49,1.27.73,1.84,1.27.52.5.68,1.43,1.27,1.84,1.12.76,3.5,1,5.37,1.42,13.18,2.92,29.5.98,39.86-2.69.67-1.55,2.07-2.6,2.97-4.1Z"/>
      <path class="cls-3" d="m59.74,6.81c-10.49,2.83-27.1-2.52-38.51-5.35,8.39-.54,18.67,1.91,28.06,2.66,3.48.28,7.59,1.52,10.45,2.69Zm-23.16-2.02c2.68.64,7.18,2.32,9.53,1.25-2.66-.34-6.82-1.39-9.53-1.25Z"/>
      <path class="cls-3" d="m41.18,9.12c.04-2.02,2.42-.66,3.51-.44,5.16,1.07,12.04,1.34,16.06-.13.91,2.07-3.4,2.11-5.22,2.17-4.15.14-9.95-.7-14.35-1.6Z"/>
      <path class="cls-3" d="m21.49,3.37c.25-.25,1.24,0,1.07.46-.51-.04-.63-.37-1.07-.46Z"/>
      <path class="cls-3" d="m23.84,3.89c.45,0,.45.33.96.3l-.11.7c-.53-.15-1.12-.26-.84-1Z"/>
      <path class="cls-3" d="m25.89,4.51c2.11.53,4.23,1.06,6.17,1.71l-.18,1.12c-2.25-.47-4.39-1.02-6.14-1.85l.16-.98Z"/>
      <path class="cls-3" d="m33.06,6.23c.39.14.3,1.26.05,1.44-.77.08-.21-1.24-.05-1.44Z"/>
      <path class="cls-3" d="m34.57,6.62l.56.09-.23,1.4c-.34,0-.26-.3-.67-.25.1-.43.07-1.04.34-1.23Z"/>
      <path class="cls-3" d="m57.38,11.8c.2-.01.4-.02.42.14.8.42-.5,1.08-.57,1.13-3.05,2.3-9.62,2.74-14.56,2.97-10.03.46-19.78-1.05-27.99-2.26-.31-.52-1.48-.83-1.13-1.55,6.63,2.36,17.31,3.27,27.42,2.83,6.89-.3,13.41-.39,16.4-3.25Z"/>
      <path class="cls-3" d="m36.5,7.07l1.95.31c-.25.59.1,1.12-.23,1.4-.54-.23-1.2-.37-1.93-.45l.2-1.26Z"/>
      <path class="cls-3" d="m39.55,7.71l.42.07-.2,1.26c-.35-.24-.24-.81-.21-1.32Z"/>
      <path class="cls-3" d="m65.86,23.81c-.5-.08-.35.5-.85.42-1.67-3.84-4.07-6.95-6.5-10.04.54-.21.96-.54,1.27-.99,2.41,3.15,4.47,6.65,6.08,10.6Z"/>
      <path class="cls-3" d="m13,15.05c-1.65,3.82-3.43,7.5-4.52,11.87-1.3-.26-2.32-.79-3.39-1.27,1.6-4.06,3.26-8.05,5.51-11.45.71-.15,1.54.69,2.4.85Z"/>
      <path class="cls-3" d="m57.8,14.76c2.33,3.09,4.59,6.24,6.36,9.89-1.12,1.14-2.62,1.9-4.38,2.4-1.7-3.72-3.26-7.58-5.37-10.88,1.32-.29,2.49-.72,3.39-1.41Z"/>
      <path class="cls-3" d="m19.07,16.18c-.64,4.12-1.33,8.19-1.41,12.86-2.88-.52-5.68-1.11-8.34-1.84,1.38-4.08,2.96-7.97,4.52-11.87,1.69.34,3.24.82,5.23.85Z"/>
      <path class="cls-3" d="m28.97,17.45c-.23,3.91-.67,8.37-.28,12.44-3.35.33-6.84-.41-10.04-.71.64-4.12.79-8.73,1.55-12.72,2.94.31,5.89.61,8.76.99Z"/>
      <path class="cls-3" d="m58.65,27.63c-3.26.84-6.96,1.99-10.46,2.12-.1-4.71-1.73-8.63-2.55-12.16,2.93.05,5.58-.91,7.92-.99,1.92,3.45,3.59,7.15,5.09,11.03Z"/>
      <path class="cls-3" d="m37.59,17.88c.16,4.13.7,8.63.57,12.58-2.97,0-5.81-.12-8.62-.28.07-4.27.31-8.36.42-12.58,2.13-.05,5.02.34,7.63.28Z"/>
      <path class="cls-3" d="m44.66,17.73c.96,3.99,1.95,7.95,2.69,12.16-2.49.38-5.45.3-8.06.56-.15-4.33-.48-8.47-.85-12.58,2.21.09,4.11-.13,6.22-.14Z"/>
      <path class="cls-3" d="m67.28,27.06c-6.11,5.83-17.78,7.12-29.4,7.63-10.83.48-22.16-.74-30.25-3.53-.17-.42.7-.41.71-1.13,0-.59-.58-1.19-1.27-1.13-1.23.1-.75,1.38-.85,1.84-.68-.41-1.5-.67-2.26-.99.14-.85.49-1.48.56-2.4,7.03,3.76,18.01,4.74,28.84,5.23,9.91.45,20.35-.68,27.85-3.68,2.06-.82,3.74-2.14,5.51-2.97.38.19.24.89.57,1.13Zm-56.12,3.53c-.21-.79-1.84-.86-1.56.71.72.83,1.77.14,1.56-.71Zm35.9,2.54c-.08-.6-.5-1.11-1.42-.56-1.69,1.01,1.66,2.41,1.42.56Zm-24.17-.14c-.38,1.5,2.08,1.5,1.7,0-.22-.57-1.48-.57-1.7,0Zm4.95.42c.16.03.22.16.28.28.5.03.74-.2.71-.71-.35-.3-1.05-.1-.99.42Z"/>
      <path class="cls-3" d="m67.84,29.89c2.23,6.36,3.63,15.44,2.69,23.61-.29-8.58-.84-16.88-3.68-22.9.27-.29.67-.46.99-.71Z"/>
      <path class="cls-3" d="m66,31.02c3.43,8.12,4.38,21.76,2.54,32.51-1.28,1.03-2.8,1.81-4.66,2.26.09-8.72,1.46-21.64-1.27-29.54-.34-1-1.01-1.83-.99-2.83,1.14-1.12,2.99-1.53,4.38-2.4Z"/>
      <path class="cls-3" d="m7.34,33.42c-1.19,10.12-1.32,23.85,1.55,32.09-.88.27-1.94-.51-2.83-.71-3.4-8.46-4.2-21.86-2.69-33.08,1.13.21,2.58,1.27,3.96,1.7Z"/>
      <path class="cls-3" d="m60.49,33.57c.53.18.45.96.57,1.55-3.32,1.48-7.62,1.99-11.59,2.83-.42-.39-.21-1.39-.43-1.98,3.91-.71,7.87-1.36,11.45-2.4Z"/>
      <path class="cls-3" d="m8.19,33.71c2.87.94,6.3,1.34,9.19,2.26v1.27c-2.77-.07-5.18-1.21-8.06-.71-1.02,7.33.3,17.38,1.13,24.88,2.1,1.2,5.08,1.51,7.77,2.12.07,1.63.4,3,.57,4.52-3.07-.51-6-1.16-8.76-1.98-2.96-8.85-2.41-21.31-1.84-32.37Z"/>
      <path class="cls-3" d="m28.4,36.67v1.98c-3.67-.05-6.67-.77-10.04-1.13.05-.56-.13-1.35.14-1.7,3.18.4,6.28.89,9.89.85Z"/>
      <path class="cls-3" d="m47.91,36.11c.51.29.33,1.27.43,1.98-2.75.41-5.61.7-8.76.71.09-.85-.13-1.38-.14-2.12,2.79-.22,5.83-.2,8.48-.57Z"/>
      <path class="cls-3" d="m38.44,36.67c-.1.9.24,1.36.14,2.26-3.22.02-6.37-.04-9.33-.28v-1.84c3.24-.09,5.83-.07,9.19-.14Z"/>
      <path class="cls-2" d="m61.34,36.96c1.79,6.72.8,15.42.99,23.61-7.82,2.42-17.15,3.11-27.42,3.11-8.25,0-15.96-2.07-23.18-2.83-.56-7.68-.78-15.71-1.56-23.18,14.98,4.37,36.88,4.02,51.17-.71Zm-1.7,4.67c1.25-.05,1.7-2,.85-3.11-2.77-1.02-2.83,3.19-.85,3.11Zm-47.07.85c2.18.25,1.82-3.43-.28-2.69-1.36.48-.98,2.54.28,2.69Zm2.12,17.67c1.55-.38,1.24-3.87-1.13-3.11-2.17.7-.45,3.5,1.13,3.11Zm45.52,0c1.72-.21,1.54-3.71-.85-2.83-1.51.79-.65,3.01.85,2.83Z"/>
      <path class="cls-2" d="m47.91,46.15c.11,2.04-.94,2.92-2.54,3.25.14-1.36.17-2.84.99-3.53.51-.24,1.11.06,1.55.28Z"/>
      <path class="cls-2" d="m27.41,47.56h.28c2.62-.01,1.61,7.72-.71,7.21-.91-.2-1.35-2.57-1.13-3.96.22-1.42,1.31-2.17,1.56-3.25Z"/>
      <path class="cls-3" d="m62.61,61.98c.33,1.09.05,2.78.14,4.1-3.67,1.18-7.46,2.24-11.87,2.69.09-1.41-.12-2.51-.14-3.82,4.61-.49,8.59-1.5,11.87-2.97Z"/>
      <path class="cls-3" d="m19.22,63.81c3.2.29,6.19.79,9.33,1.13.05,1.55.25,2.96.42,4.38-3.11-.28-6.22-.56-9.05-1.13-.23-1.47-.62-2.77-.71-4.38Z"/>
      <path class="cls-3" d="m29.53,65.09c3.15.29,6.26.62,9.75.57-.11,1.47.22,2.51.14,3.96-3.28.03-6.45-.05-9.47-.28-.2-1.36-.31-2.8-.42-4.24Z"/>
      <path class="cls-3" d="m49.75,65.09c.1,1.42-.23,2.41-.14,3.82-2.84.41-6.1.4-9.05.71-.22-1.19-.19-2.64-.28-3.96,3.44.09,6.36-.33,9.47-.57Z"/>
      <path class="cls-3" d="m67.7,66.36h.28c-.1,2.44-3.32,3.02-5.23,3.68-14.6,5.01-40.18,4.1-54.56-.42-.54-.78-.91-1.72-1.27-2.68,16.31,6.35,45.08,6.19,60.78-.57Z"/>
      <path class="cls-3" d="m61.34,79.93c.7-2.37,1.13-5,1.41-7.77,1.16-.44,2.82-.38,3.67-1.13.17-.02.25.03.28.14-1.54,3.17-1.11,8.31-5.37,8.76Z"/>
      <path class="cls-3" d="m9.46,71.73c1,.23,1.77.68,2.83.85,2.07,3.21,3.71,6.84,6.64,9.19-3.06-.02-4.02-2.61-5.94-4.95-1.53-1.87-2.72-3.34-3.53-5.09Z"/>
      <path class="cls-3" d="m61.62,72.3c.25-.04.29.13.14.14-.54,2.62-1.34,4.97-1.56,7.92-3.18.63-6.39,1.24-9.47,1.98-.27-2.43.29-5.27.28-7.92,3.86-.38,7.33-1.15,10.6-2.12Z"/>
      <path class="cls-3" d="m13.84,73.29c1.91-.07,3.94.96,6.22.99.52,3.02,1.41,5.66,2.26,8.34-.82.07-1.27-.24-1.98-.28.1-.43-.14-.52-.14-.85-2.58-2.27-3.99-5.71-6.36-8.2Z"/>
      <path class="cls-3" d="m21.05,74.42c2.79.27,5.55.57,8.48.71.24,2.92.79,5.52,1.13,8.34-2.28-.21-4.61-.39-6.93-.57-1-2.72-1.91-5.53-2.69-8.48Z"/>
      <path class="cls-3" d="m49.89,74.7c-.03,2.84-.46,5.29-.71,7.92-2.64.23-5.17.58-7.91.71.04-2.87-.2-5.46-.42-8.06,3.33.13,6.05-.35,9.05-.57Z"/>
      <path class="cls-3" d="m30.66,75.12c2.81.3,6.15.07,9.19.14.32,2.46-.02,5.58.28,8.06-2.72.3-5.38.2-8.2.14-.63-2.58-.97-5.44-1.27-8.34Z"/>
      <path class="cls-3" d="m60.92,82.33c-.34.89-1.54.69-2.26.85-5.37,1.2-11.92,2.97-18.66,2.97-5.85,0-12.14-.14-17.53-.99-1.62-.25-3.52-.29-4.52-1.55,12.47,3.31,31.09,2.06,42.97-1.27Z"/>
    </g>
    <g>
      <path class="cls-1" d="m30.02,45.07c2.63,4.47,5.91,7.41,10.16,12.03,1.39,1.51,2.78,3.51,4.52,3.26.38-2.58-2.43-5.33-4.87-8.18-1.93-2.26-3.9-4.64-5.79-6.57.12-.83-4.09-3.57-4.02-.53Z"/>
      <path class="cls-1" d="m43.07,43.19c-3.8,3.75-5.95,7.76-9.52,13.15-1.17,1.76-2.82,3.66-2.18,5.31,2.62-.29,4.69-3.78,6.95-6.93,1.79-2.49,3.68-5.06,5.15-7.42.85-.09,2.59-4.97-.39-4.11Z"/>
    </g>
  </g>
</svg>