<?xml version="1.0" encoding="UTF-8"?>
<svg id="Lager_2" data-name="Lager 2" xmlns="http://www.w3.org/2000/svg" viewBox="0 0 96.04 78.89">
  <defs>
    <style>
      .cls-1 {
        fill: #492727;
      }

      .cls-1, .cls-2, .cls-3 {
        fill-rule: evenodd;
        stroke-width: 0px;
      }

      .cls-2 {
        fill: #ffa31d;
      }

      .cls-3 {
        fill: #fff;
      }
    </style>
  </defs>
  <g id="Layer_1" data-name="Layer 1">
    <g>
      <path class="cls-1" d="m20.75,63.06c-3.79-.68-2.26,2.75-1.13,3.73,1.07.93,2.48,1.94,4.13,2.11.04-.13.16-.19.38-.16,1.39-1.98-2.26-5.47-3.38-5.67Z"/>
      <path class="cls-1" d="m26.96,69.21c-1.21.33-1.81,1.04-1.13,2.59.45,1.03,4.25,2.93,5.26,2.75.67-.12,1.21-.6,1.32-1.3.27-1.73-4.11-4.42-5.45-4.05Z"/>
      <path class="cls-1" d="m35.04,73.75c-.88.35-1.14.77-.94,1.78.43,2.18,7.09,4.02,7.14,1.3.03-1.62-4.32-3.84-6.2-3.08Z"/>
      <path class="cls-1" d="m44.32,75.93c-.66.67-.74,1.16-.16,2.01,1.26,1.83,8.1.88,7.07-1.64-.62-1.5-5.49-1.82-6.91-.37Z"/>
      <path class="cls-1" d="m53.41,76.7c-.04,3.31,8.06.26,8.33-1.31.26-1.55-1.77-1.85-3.77-1.49-1.68.3-4.54.66-4.56,2.81Z"/>
      <path class="cls-1" d="m63.94,71.98c-1.87,3.36,1.86,3.02,3.16,2.27,1.22-.71,2.64-1.72,3.33-3.23-.11-.08-.13-.21-.03-.41-1.42-1.96-5.91.36-6.46,1.36Z"/>
      <path class="cls-1" d="m71.78,68.11c-.08,1.25.4,2.05,2.09,1.91,1.12-.09,4.16-3.07,4.31-4.08.1-.67-.18-1.34-.8-1.67-1.55-.81-5.51,2.45-5.6,3.84Z"/>
      <path class="cls-1" d="m78.69,61.94c.05.94.36,1.33,1.38,1.47,2.2.3,6.11-5.4,3.54-6.33-1.52-.55-5.04,2.84-4.92,4.87Z"/>
      <path class="cls-1" d="m82.88,24.26c3.15-1.04-2.37-7.71-3.95-7.45-1.56.25-1.18,2.27-.19,4.05.83,1.49,2.1,4.08,4.13,3.4Z"/>
      <path class="cls-1" d="m83.2,23.9c1.54-.17,1.8-5.95,1.12-6.06-.67-.1-1.24,1.41-1.49,2.87-.21,1.22-.64,3.3.36,3.19Z"/>
      <path class="cls-1" d="m83.1,23.61c-.17-1.54-5.95-1.8-6.06-1.12-.1.67,1.41,1.24,2.87,1.49,1.22.21,3.3.64,3.19-.36Z"/>
      <path class="cls-1" d="m74.99,15.84c3.79.68,2.26-2.75,1.13-3.73-1.07-.93-2.48-1.94-4.13-2.11-.04.13-.16.19-.38.16-1.39,1.98,2.26,5.47,3.38,5.67Z"/>
      <path class="cls-1" d="m68.79,9.68c1.21-.33,1.81-1.04,1.13-2.59-.45-1.03-4.25-2.93-5.26-2.75-.67.12-1.21.6-1.32,1.3-.27,1.73,4.11,4.42,5.45,4.05Z"/>
      <path class="cls-1" d="m60.71,5.14c.88-.35,1.14-.77.94-1.78-.43-2.18-7.09-4.02-7.14-1.3-.03,1.62,4.32,3.84,6.2,3.08Z"/>
      <path class="cls-1" d="m51.42,2.96c.66-.67.74-1.16.16-2.01-1.26-1.83-8.1-.88-7.07,1.64.62,1.5,5.49,1.82,6.91.37Z"/>
      <path class="cls-1" d="m42.33,2.19c.04-3.31-8.06-.26-8.33,1.31-.26,1.55,1.77,1.85,3.77,1.49,1.68-.3,4.54-.66,4.56-2.81Z"/>
      <path class="cls-1" d="m31.8,6.92c1.87-3.36-1.86-3.02-3.16-2.27-1.22.71-2.64,1.72-3.33,3.23.11.08.13.21.03.41,1.42,1.96,5.91-.36,6.46-1.36Z"/>
      <path class="cls-1" d="m23.96,10.78c.08-1.25-.4-2.05-2.09-1.91-1.12.09-4.16,3.07-4.31,4.08-.1.67.18,1.34.8,1.67,1.55.81,5.51-2.45,5.6-3.84Z"/>
      <path class="cls-1" d="m17.05,16.95c-.05-.94-.36-1.33-1.38-1.47-2.2-.3-6.11,5.4-3.54,6.33,1.52.55,5.04-2.84,4.92-4.87Z"/>
      <path class="cls-1" d="m20.33,42.58c-.37-3.04-4-4.17-5.95-4.9-.59-.97-1.46-1.52-2.38-1.99.57-1.71-1.01-3.2-2.43-3.32.09-1.21,0-2.84.72-3.43.04.43.15.78.38.94,1.47.44,1.18-1.73.2-1.85-2.31.12-1.68,2.74-2.09,4.36-.41.02-.59.2-.96.24-.35-1.78-1.24-2.77-2.43-3.32-.93.09-1.68.42-1.81,1.14-.13.71.35,1.77,1.04,1.63,1.11-.24-.02-1.56.37-2.02,1.3.18,1.73,1.62,2.23,2.96-1.19.51-1.35,2.5-.58,3.81-.85.34-1.01,1.4-1.59,1.98-.49.49-1.27.78-1.85,1.28-1.94,1.69-3.96,3.69-2.86,7.12.19.59,1.23,1.41,1.7,1.57,1.62.54,2.94-.75,3.85-1.78.54,1.36,1.62,1.9,2.7,2.6.86.56,1.5,1.02,2.53.95,3.43-.22,4.06-3.15,4.8-5.39.85.4,2.2.94,3.48.24.83-.46,1.09-1.74.97-2.8Z"/>
      <path class="cls-2" d="m10.81,35.44c-1.07-.27-2.25.42-3.23.73-.33-.57-.38-1.44-.14-1.86.77-1.36,4.26-.64,3.37,1.13Z"/>
      <path class="cls-2" d="m11.91,37.06c-1.39.39-2.94.3-4.41.54.96-1.24,3.23-1.03,4.41-.54Z"/>
      <path class="cls-3" d="m6.55,39.05c-.35.57-.91,1-1.03,1.74.55-.33,1.07-1.15,1.65-1.65.2,2.53-.66,5.6-2.13,7.46-.53.67-1.51,1.32-2.85,1.33-.62-.5-1.18-1.29-1.13-2.49.08-1.93,2.01-4.15,3.77-5.47.63-.47.97-.96,1.72-.92Zm-3.71,6.2c.36.04.45-.45.61-.72.41-.69.9-1.38,1.09-2.15.04,0,.06-.07-.01-.07-.72.83-1.52,1.91-1.68,2.93Z"/>
      <path class="cls-2" d="m8.09,38.97c.91,0,1.87-.07,2.86-.19.11.19.28.3.37.54l-3.13.57c.06-.24-.05-.6-.1-.92Z"/>
      <path class="cls-3" d="m13.65,38.49c0-.06.07-.07.12-.09,1.08.46,2.43.94,3.62,1.76.71.48,1.74,1.37,1.82,2.56.07,1.05-.87,1.98-2.37,1.78-.41-.06-1.07-.48-1.42-.75-1.38-1.05-2.42-3.37-3.37-4.77.81-.77,1.37.05,1.98.51,1.08.81,2.32,2.17,3.29,2.9-.72-1.7-2.33-2.84-3.68-3.9Z"/>
      <path class="cls-2" d="m12.22,41.31c.44.65.91,1.27,1.36,1.9-2.28.51-4.21.49-6.11.45.07-.55.19-1.08.39-1.55l4.36-.8Z"/>
      <path class="cls-2" d="m14.46,45.07c-.01.3-.14.51-.19.78-2.53.32-5.37,1.09-7.41.69-.26-.44-.28-.82-.09-1.2,2.27.34,4.82.26,7.69-.27Z"/>
      <path class="cls-2" d="m9.14,48.34c1.37-.1,2.63-.5,4.04-.74.11.16-.18.55-.4.75-1.17,1.03-2.91,1.17-3.64,0Z"/>
      <path class="cls-1" d="m75.61,34.9c-.64,2.99,2.43,5.24,4.04,6.56.24,1.1.88,1.91,1.61,2.65-1.1,1.44-.08,3.35,1.22,3.93-.48,1.12-.93,2.69-1.79,3.01.1-.42.11-.78-.05-1.01-1.25-.9-1.68,1.26-.79,1.69,2.22.64,2.48-2.05,3.4-3.44.39.11.63,0,.99.08-.25,1.8.27,3.02,1.22,3.93.91.22,1.73.14,2.08-.49.36-.63.24-1.79-.45-1.88-1.12-.13-.49,1.48-1.01,1.79-1.17-.59-1.11-2.09-1.15-3.52,1.29-.1,2.09-1.93,1.78-3.41.91-.05,1.41-.99,2.14-1.35.63-.31,1.46-.32,2.17-.61,2.39-.97,4.95-2.2,5.02-5.81.01-.62-.7-1.74-1.1-2.04-1.36-1.04-3.02-.25-4.22.44-.07-1.46-.91-2.32-1.71-3.34-.63-.81-1.09-1.45-2.09-1.72-3.32-.9-4.86,1.66-6.29,3.54-.68-.65-1.77-1.61-3.21-1.35-.93.16-1.6,1.29-1.82,2.34Z"/>
      <path class="cls-2" d="m82.3,44.75c.93.6,2.26.33,3.29.36.13.65-.11,1.48-.47,1.8-1.17,1.04-4.24-.78-2.82-2.16Z"/>
      <path class="cls-2" d="m81.78,42.86c1.44.08,2.88.67,4.35.92-1.31.87-3.39-.07-4.35-.92Z"/>
      <path class="cls-3" d="m87.49,42.71c.52-.43,1.19-.65,1.54-1.31-.62.13-1.39.74-2.1,1.02.63-2.46,2.44-5.08,4.44-6.36.72-.46,1.86-.75,3.13-.33.43.68.7,1.6.26,2.72-.7,1.8-3.25,3.27-5.35,3.95-.75.24-1.23.6-1.92.31Zm5.52-4.66c-.33-.15-.57.28-.81.48-.61.52-1.3,1.01-1.73,1.68-.04,0-.08.04,0,.07.95-.55,2.05-1.31,2.54-2.23Z"/>
      <path class="cls-2" d="m86.02,42.29c-.86-.3-1.79-.54-2.77-.75-.05-.22-.17-.38-.17-.63l3.14.47c-.13.21-.15.59-.2.91Z"/>
      <path class="cls-3" d="m80.59,40.94c-.01.06-.09.04-.14.05-.88-.79-1.99-1.68-2.86-2.84-.51-.69-1.2-1.86-.89-3.01.27-1.02,1.47-1.59,2.82-.92.37.19.85.8,1.1,1.17.96,1.45,1.19,3.97,1.64,5.6-1.02.47-1.28-.5-1.71-1.13-.75-1.12-1.49-2.8-2.17-3.81.13,1.85,1.28,3.44,2.21,4.88Z"/>
      <path class="cls-2" d="m82.87,38.74c-.21-.76-.45-1.49-.67-2.24,2.32.26,4.14.9,5.93,1.56-.25.5-.53.96-.87,1.34l-4.39-.66Z"/>
      <path class="cls-2" d="m81.97,34.45c.11-.28.3-.44.44-.67,2.5.52,5.43.72,7.24,1.75.1.5,0,.87-.31,1.16-2.04-1.06-4.48-1.81-7.36-2.24Z"/>
      <path class="cls-2" d="m88.07,33.09c-1.33-.35-2.65-.38-4.06-.61-.05-.19.35-.47.62-.58,1.44-.59,3.13-.16,3.44,1.19Z"/>
      <path class="cls-1" d="m14.18,53.51c-3.27.55,1.17,7.98,2.76,7.97,1.58-.01,1.51-2.07.8-3.97-.59-1.6-1.45-4.35-3.57-3.99Z"/>
      <path class="cls-1" d="m13.8,53.82c-1.55-.07-2.69,5.61-2.03,5.82.65.2,1.44-1.21,1.9-2.61.39-1.18,1.13-3.17.13-3.21Z"/>
      <path class="cls-1" d="m13.86,54.12c-.07,1.55,5.61,2.69,5.82,2.03.2-.65-1.21-1.44-2.61-1.9-1.18-.39-3.17-1.13-3.21-.13Z"/>
    </g>
  </g>
</svg>