<svg width="53" height="53" viewBox="0 0 53 53" fill="none" xmlns="http://www.w3.org/2000/svg">
<path d="M53 26.5C53 41.1355 41.1355 53 26.5 53C11.8645 53 0 41.1355 0 26.5C0 11.8645 11.8645 0 26.5 0C41.1355 0 53 11.8645 53 26.5Z" fill="#FFC440" fill-opacity="0.57"/>
<path fill-rule="evenodd" clip-rule="evenodd" d="M19.8267 16.4593C20.1455 15.699 20.3326 14.8071 20.6075 14C20.0548 14.4328 19.6425 15.544 19.8267 16.4593Z" fill="#492727"/>
<path fill-rule="evenodd" clip-rule="evenodd" d="M21.7392 14.2339C21.5521 14.2924 21.6427 14.2018 21.4673 14.1959C20.8912 14.7749 20.3385 15.7546 20.4526 16.7722C20.7742 15.8189 21.1485 14.9182 21.7392 14.2369V14.2339Z" fill="#492727"/>
<path fill-rule="evenodd" clip-rule="evenodd" d="M21.5433 15.8335C21.7217 15.5674 21.9585 15.3393 22.0901 15.0527C22.0404 15.0527 22.0375 15.003 21.9732 15.0147C21.5608 15.4621 21.0842 15.8423 20.9965 16.6143C21.3094 16.4827 21.3678 16.0938 21.5433 15.8335Z" fill="#492727"/>
<path fill-rule="evenodd" clip-rule="evenodd" d="M12.4517 25.159C12.75 25.7497 13.3729 26.0509 13.8554 26.4457C14.0688 26.6212 14.2852 26.8493 14.5192 26.9925C16.6276 28.2763 20.1601 27.285 22.3241 26.6796C22.4323 26.9604 22.7481 27.244 22.83 27.4224C21.131 27.8055 19.5051 28.2588 18.1862 29.022C18.0312 28.9694 17.8265 28.9781 17.6394 29.022C17.0048 29.1682 15.7445 30.1888 15.5719 30.5836C15.49 30.7649 15.5134 30.9842 15.493 31.1684C15.3292 31.4989 14.9988 31.6626 14.7911 31.9492C15.2122 32.3411 15.607 31.7796 15.7649 31.4404C16.8586 31.4404 17.4054 30.5602 18.1833 30.1128C19.353 30.066 20.2683 29.446 21.2655 29.098C20.4175 29.8233 19.3706 30.8965 18.6512 31.9083C18.2915 32.4112 17.8997 33.2096 18.3003 33.7038C17.9172 34.1804 17.2358 34.6922 17.2066 35.4993C17.1861 36.0549 17.5224 37.3855 17.8295 37.6837C18.0605 37.9089 18.4348 37.8826 18.4933 38.1516C18.5459 38.4002 18.2096 38.9149 18.4143 39.1663C18.9846 39.0465 19.0869 38.1984 18.8822 37.6457C19.2097 36.6719 18.7594 35.0256 19.0372 33.8617C19.2361 33.8939 19.3326 33.8208 19.4671 33.7827C20.2946 32.4493 20.9263 30.7152 22.0024 29.7648C21.7422 30.7035 21.6691 32.2153 21.7305 33.2768C21.8211 34.8647 22.1779 36.4351 23.0961 37.4118C23.2453 37.5697 23.4587 37.6662 23.6049 37.8416C24.3331 38.7189 24.9998 40.1899 26.6871 39.9881C27.389 39.9033 27.5937 39.257 27.9738 38.8184C28.4095 38.3125 28.9944 37.8621 29.3395 37.2568C30.5735 35.0928 30.0618 31.7591 29.3775 29.4928C30.5384 30.5309 31.4947 31.958 32.1088 33.5108C32.2521 33.8734 32.3281 34.119 32.5766 34.3296C32.9071 35.4028 32.9012 36.8123 33.7464 37.3738C33.8078 37.7393 33.5738 37.9996 33.7083 38.3095C34.2435 38.4704 34.3049 37.6399 34.2142 37.1778C34.495 36.9761 34.65 36.5959 34.6441 36.2421C34.6412 36.09 34.5388 35.9438 34.5271 35.7742C34.5213 35.666 34.5798 35.5227 34.5652 35.4233C34.4628 34.7331 33.8136 34.315 33.5124 33.8997C33.4159 31.7708 31.6877 30.7298 30.7431 29.4519C31.5707 30.0163 32.5094 30.4695 33.2405 31.1304C33.3633 31.1889 33.413 31.145 33.5534 31.1304C34.0651 31.7387 34.5769 32.344 35.6208 32.4171C35.8285 32.5809 36.2086 32.9464 36.5186 32.651C36.58 32.2241 36.0624 32.2241 35.8928 31.9492C35.8138 31.8205 35.8314 31.6392 35.7758 31.5193C35.6413 31.2386 35.3869 30.9257 35.1529 30.7005C34.7816 30.3438 34.1792 29.9168 33.5153 29.8408C32.9656 29.1156 32.0415 28.6009 31.135 28.1623C30.3688 27.7909 29.4535 27.516 28.5207 27.4195C28.7371 27.1943 28.8745 26.8902 29.1055 26.6767C30.7256 26.975 32.8047 27.5686 34.84 27.3405C36.659 27.1358 37.9983 26.2264 38.3141 24.5303C39.0276 24.1033 40.0628 22.2493 39.2119 21.527C37.0684 21.5709 35.5419 22.264 33.7493 22.6968C32.1731 23.0798 30.6262 23.4103 29.0675 23.8665C29.047 23.7027 28.9301 23.6384 28.9125 23.4775C29.3131 23.2114 29.6319 22.9395 29.9653 22.6178C30.439 22.1645 31.0122 21.7581 30.942 20.8223C30.8952 20.214 31.0092 19.4859 30.904 18.7928C30.8659 18.5472 30.6642 18.3454 30.5911 18.091C30.5209 17.8366 30.6466 17.5763 30.4361 17.3892C30.1319 17.3775 30.1232 17.8483 30.2021 18.091C29.6524 18.6057 29.5763 20.2082 30.0471 20.8603C29.2459 21.2434 28.7166 21.8955 28.3686 22.7348C28.199 22.6324 27.9943 22.5622 27.8627 22.4219C28.547 20.9597 27.3626 19.5356 26.3801 19.0268C26.8421 18.518 27.3539 17.9448 28.0966 17.6611C28.6493 17.4506 29.4564 17.5676 29.3073 16.8423C28.7458 16.5294 28.547 16.9739 28.2926 17.1552C27.9387 17.4067 27.1579 17.8103 26.731 18.17C26.462 18.3981 26.1812 18.8806 25.9502 18.9508C25.5964 19.056 25.2659 18.8981 24.9355 18.9888C24.6343 17.6875 23.8594 16.6581 22.4381 16.6084C22.2949 16.7692 22.2656 17.0909 22.4381 17.2313C22.6545 17.4126 22.8066 17.1962 23.023 17.1933C24.1167 17.1728 24.2921 18.1846 24.6226 19.0648C23.9471 19.6614 22.6165 20.255 22.7891 21.6002C22.8417 22.0154 23.0552 22.3458 23.2979 22.6529C23.1312 22.6675 23.0055 22.9307 22.909 22.8868C22.4352 21.9043 21.8591 21.0211 21.1134 20.3105C21.3474 19.7754 22.1545 19.1204 22.0902 18.3981C22.0785 18.2548 21.9469 18.0325 21.8942 17.8512C21.8445 17.6728 21.8533 17.4243 21.6603 17.3453C21.4761 17.4828 21.4146 17.784 21.4644 18.0471C21.3298 18.0881 21.2801 18.2021 21.1924 18.3191C20.9204 18.6817 20.1543 19.9626 20.2566 20.5825C20.2771 20.717 20.4584 20.8691 20.5286 21.0124C20.704 21.3574 20.821 21.7434 21.1134 22.1061C21.5872 22.6909 22.0112 23.0798 22.558 23.4717C22.4264 23.615 22.4001 23.8577 22.2071 23.9396C19.1279 23.5214 15.2122 22.6471 11.9049 22.6529C11.6651 22.6529 11.3492 23.1851 11.32 23.3547C11.1329 24.4016 11.9253 24.7204 12.4517 25.1502V25.159Z" fill="#492727"/>
<path fill-rule="evenodd" clip-rule="evenodd" d="M40.5453 21.413H40.4284C40.2939 22.147 40.1974 23.0944 40.1155 23.7553C40.6068 23.3518 40.6974 22.2113 40.5453 21.413Z" fill="#492727"/>
<path fill-rule="evenodd" clip-rule="evenodd" d="M41.3641 21.726H41.2471C41.1243 22.3079 40.9254 23.0156 40.8582 23.5215C41.2909 23.229 41.5454 22.3781 41.3641 21.726Z" fill="#492727"/>
<path fill-rule="evenodd" clip-rule="evenodd" d="M41.9109 22.1938C41.7764 22.6588 41.5629 23.0419 41.405 23.4805C41.7793 23.3987 42.1829 22.7114 41.9109 22.1938Z" fill="#492727"/>
<path fill-rule="evenodd" clip-rule="evenodd" d="M11.399 25.276C11.3815 25.3228 11.3581 25.3637 11.3201 25.393C11.4283 25.7965 11.7061 26.2995 12.0219 26.6036C12.2383 26.8113 12.6565 27.1417 12.9577 26.8376C12.2851 26.4691 11.823 25.8901 11.3961 25.276H11.399Z" fill="#492727"/>
<path fill-rule="evenodd" clip-rule="evenodd" d="M12.2967 27.1885C12.0657 26.6768 11.5627 26.4399 11.244 26.0188H11.165C11.2791 26.6738 11.7733 26.9458 12.2967 27.1885Z" fill="#492727"/>
<path fill-rule="evenodd" clip-rule="evenodd" d="M12.3347 27.8114C11.8873 27.4663 11.4779 27.0803 11.0071 26.7587C10.9135 27.443 11.7645 27.9196 12.3347 27.8114Z" fill="#492727"/>
<path fill-rule="evenodd" clip-rule="evenodd" d="M21.6983 18.4098C21.6515 19.1438 21.1543 19.4245 20.9175 19.9714C20.9994 19.4304 21.1924 18.6613 21.6983 18.4098Z" fill="white"/>
<path fill-rule="evenodd" clip-rule="evenodd" d="M30.4011 18.4858C30.6876 18.8982 30.5502 19.9363 30.48 20.4773C30.3309 19.9041 30.0384 19.0005 30.4011 18.4858Z" fill="white"/>
<path fill-rule="evenodd" clip-rule="evenodd" d="M22.4031 22.7786C21.6866 22.3108 21.2655 21.5475 20.8035 20.8282C20.8678 20.7638 20.9058 20.6702 21.0374 20.6732C21.5696 21.299 21.9966 22.03 22.4031 22.7816V22.7786Z" fill="white"/>
<path fill-rule="evenodd" clip-rule="evenodd" d="M39.0627 22.1149C38.9282 22.6325 38.7995 23.1647 38.5568 23.5595C37.5625 25.1649 35.2933 26.2469 32.5474 26.0949C31.4157 26.0335 30.2489 25.7674 29.1143 25.665C28.9388 25.6504 28.7253 25.6562 28.5294 25.627C28.4124 25.6094 28.1434 25.627 28.0995 25.4311C28.1171 25.2059 28.3773 25.3813 28.4504 25.393C29.6319 25.5393 31.4888 25.6036 32.8193 25.548C32.4655 25.2439 31.828 25.3843 31.2987 25.3521C30.4009 25.2965 29.1991 25.2761 28.3715 25.1182C30.2957 24.9486 32.135 24.6941 33.7171 24.1824C32.1555 24.3461 30.6612 24.6474 28.8014 24.7292C28.5937 24.738 28.196 24.8462 28.0586 24.7292C28.1346 24.5684 28.3861 24.5333 28.5265 24.4953C29.9126 24.1268 31.3543 23.7496 32.8193 23.4016C34.7903 22.9366 36.6121 22.4161 38.7118 22.1149C38.8112 22.1003 38.9018 22.0389 39.0627 22.1149Z" fill="white"/>
<path fill-rule="evenodd" clip-rule="evenodd" d="M28.5675 23.9893C28.2429 24.1355 27.8452 24.2028 27.5528 24.3782C27.8306 25.1707 27.199 26.472 28.3336 26.4457C27.8686 27.2967 27.196 28.1564 25.7193 28.0453C24.4706 27.9517 23.2775 27.5394 22.95 26.5247C23.1576 26.3434 23.5173 26.3112 23.7688 26.1738C23.8126 25.5012 23.8536 24.8257 24.0027 24.2613C23.7191 24.0624 23.1722 24.1297 22.833 23.9893C23.2629 23.1588 24.1957 22.8313 25.2923 22.6617C25.4941 22.6149 25.3333 22.9336 25.4883 22.9336C25.6637 22.9278 25.6549 22.7377 25.7222 22.6207C27.0674 22.3956 28.2459 22.9395 28.5705 23.9864L28.5675 23.9893ZM26.1872 22.9746C25.8713 22.9395 25.9883 23.4688 26.1491 23.5214C26.3041 23.4337 26.2866 23.115 26.1872 22.9746ZM27.2019 23.6384C27.2633 23.4483 27.1814 23.0945 26.889 23.1325C26.7837 23.3606 27.006 23.7174 27.2019 23.6384ZM23.8858 23.8343C24.0261 23.7612 24.0378 23.46 24.0027 23.3255C23.7659 23.2582 23.7337 23.77 23.8858 23.8343ZM25.0964 23.8723C25.3771 23.9045 25.3771 23.4717 25.2514 23.3255C24.9707 23.2992 25.0613 23.691 25.0964 23.8723ZM24.2776 23.7174C24.3332 23.7905 24.3653 23.8899 24.5115 23.8723C24.6285 23.846 24.6431 23.7174 24.6285 23.5594C24.4969 23.4308 24.263 23.4893 24.2776 23.7144V23.7174ZM27.4768 23.9893C27.699 24.001 27.8014 23.8987 27.7897 23.6764C27.5821 23.536 27.392 23.8256 27.4768 23.9893ZM25.9152 24.2233C26.1989 23.7612 25.5497 23.653 25.6813 24.2613C25.8012 24.2905 25.8246 24.2203 25.9152 24.2233ZM26.462 23.8723C26.3012 24.0507 26.503 24.3899 26.7749 24.3782C26.8861 24.1385 26.6755 23.9133 26.462 23.8723ZM24.7075 24.6911C24.9707 24.6794 25.0262 24.463 25.0584 24.2233C24.7806 24.08 24.5466 24.5098 24.7075 24.6911ZM25.9561 25.276C26.2076 25.276 26.1375 24.6853 26.0351 24.5742H25.9181C25.8012 24.7175 25.7953 25.1824 25.9561 25.276ZM26.658 25.6679C26.968 25.624 27.1873 25.2935 27.1259 25.004C26.7925 25.0479 26.734 25.3667 26.658 25.6679ZM25.4473 25.121C25.1461 25.2672 25.2719 25.9866 25.7193 25.8638C25.8567 25.5743 25.6959 25.2468 25.4473 25.121ZM24.3156 25.6679C24.3449 25.8462 24.7572 26.0773 24.8625 25.7059C24.7864 25.3374 24.2484 25.2438 24.3156 25.6679ZM26.734 26.6826C27.0177 26.668 27.2779 26.3872 27.0849 26.1357C26.7896 26.1416 26.7282 26.3755 26.734 26.6826ZM24.6665 26.8376C24.804 26.6797 24.6285 26.4223 24.6285 26.1738C24.2981 26.1533 24.2981 26.9048 24.6665 26.8376ZM25.8772 27.0335C25.9795 26.9282 25.9561 26.6943 25.9561 26.4867C25.6082 26.0539 25.4181 27.0686 25.8772 27.0335ZM24.0437 27.2294C24.0437 26.9282 23.839 26.8346 23.8097 26.5656H23.6927C23.453 26.861 23.8302 27.2704 24.0437 27.2294ZM26.9709 27.5423C27.3218 27.4897 27.5557 27.3201 27.5967 26.9575C27.2721 26.8697 26.9446 27.2762 26.9709 27.5423ZM25.9942 27.7382C26.2281 27.7061 26.3655 27.3932 26.2661 27.1534C25.9766 27.1329 25.8333 27.554 25.9942 27.7382Z" fill="#7A4141"/>
<path fill-rule="evenodd" clip-rule="evenodd" d="M22.754 24.3783C20.783 24.4748 18.9291 24.118 16.9405 24.1063C18.7565 24.58 21.2597 24.735 23.3389 24.6912C23.371 25.0304 22.9441 24.9397 22.754 24.9631C21.2071 25.1678 19.046 25.1971 17.3704 25.314C19.1571 25.6328 21.4352 25.3988 23.2219 25.2351C22.0727 25.7556 20.5491 25.9106 18.891 26.0539C16.9698 26.2206 15.2649 26.3609 13.8174 25.624C13.5337 25.4778 13.2004 25.2409 12.9196 25.0392C12.6301 24.8315 12.2588 24.6093 12.1008 24.4134C11.671 23.8811 11.6885 23.0389 12.5307 22.9688C12.9343 22.9337 13.4109 23.0887 13.8583 23.1237C16.9025 23.3752 19.7391 24.1472 22.754 24.3724V24.3783ZM14.4432 23.6764C14.2853 23.6267 14.1098 23.5916 13.8964 23.5975C13.8964 23.7759 14.3993 23.9075 14.4432 23.6764ZM14.6391 25.0421C14.9871 25.1503 15.4433 25.3579 15.8878 25.238C15.569 25.121 14.9549 24.9076 14.6391 25.0421Z" fill="white"/>
<path fill-rule="evenodd" clip-rule="evenodd" d="M37.931 24.8871C36.9309 27.9985 31.3192 26.9458 28.4504 26.0568C29.0411 26.0451 29.6611 26.1621 30.284 26.2527C31.4537 26.4223 32.7959 26.6417 34.3019 26.5247C35.8577 26.4077 36.9952 25.6182 37.931 24.8871Z" fill="white"/>
<path fill-rule="evenodd" clip-rule="evenodd" d="M28.2925 27.7733C29.9476 28.0862 31.5209 28.6447 32.6614 29.5279C32.9567 29.756 33.4772 30.0133 33.2872 30.4637C32.8573 30.3262 32.4918 30.0455 32.1174 29.7998C31.3981 29.332 30.6027 28.7939 29.7751 28.3962C29.3452 28.1886 28.8656 28.1096 28.4095 27.8874C28.3451 27.8581 28.2954 27.9195 28.2925 27.7704V27.7733Z" fill="white"/>
<path fill-rule="evenodd" clip-rule="evenodd" d="M22.8709 27.8903C21.4117 28.5248 20.1455 29.3524 18.4231 29.7238C18.7389 29.0892 19.5987 28.864 20.3356 28.5921C21.1398 28.2967 21.9527 27.9955 22.8709 27.8903Z" fill="white"/>
<path fill-rule="evenodd" clip-rule="evenodd" d="M28.0206 28.4751C26.9211 29.0424 24.9472 29.1536 23.4558 28.8641C23.8652 27.9078 25.2864 28.7208 26.3421 28.5921C26.9767 28.5131 27.5557 27.9751 28.0206 28.4751Z" fill="#7A4141"/>
<path fill-rule="evenodd" clip-rule="evenodd" d="M28.7605 29.5309C27.5118 30.5632 24.5232 30.4345 22.7891 29.9198C22.8768 29.604 23.0289 29.3525 23.178 29.101C24.5904 29.5952 26.924 29.3671 28.0937 28.8671C28.4622 28.7092 28.5879 29.2472 28.7575 29.5309H28.7605Z" fill="#FFA31D"/>
<path fill-rule="evenodd" clip-rule="evenodd" d="M32.8194 33.8997C32.5708 33.8178 32.5532 33.4991 32.4684 33.3148C31.8251 31.8878 31.018 30.4169 29.8921 29.4138C29.8541 29.4138 29.8629 29.3671 29.8541 29.3349C29.8863 29.3261 29.8921 29.2969 29.9331 29.2969C29.9652 29.3056 29.9711 29.3349 30.012 29.3349C31.0706 30.2034 32.059 31.3029 32.8223 32.613C32.9948 32.9084 33.4598 33.7125 32.8223 33.8997H32.8194Z" fill="white"/>
<path fill-rule="evenodd" clip-rule="evenodd" d="M17.8762 29.6068C17.3557 30.1917 16.7006 30.8496 15.8877 31.0105C16.3059 30.3203 16.9083 29.6127 17.8762 29.6068Z" fill="white"/>
<path fill-rule="evenodd" clip-rule="evenodd" d="M29.1904 31.0515C27.4212 31.8791 24.225 31.7884 22.5172 30.9725C22.4938 30.6509 22.5786 30.4374 22.6341 30.1918C24.3302 30.9111 27.5469 30.9228 28.9155 29.9198C29.0676 30.2356 29.1553 30.6158 29.1875 31.0515H29.1904Z" fill="#7A4141"/>
<path fill-rule="evenodd" clip-rule="evenodd" d="M33.7551 30.3877H33.8341C34.5125 30.6626 35.1763 31.0924 35.3547 31.9083C34.5739 31.6481 33.8984 31.2825 33.7551 30.3877Z" fill="white"/>
<path fill-rule="evenodd" clip-rule="evenodd" d="M22.4791 31.2854C24.1869 32.1188 27.4767 32.2563 29.2693 31.4024C29.3746 31.7679 29.3892 32.2182 29.4652 32.613C27.2574 33.1043 24.4939 32.7768 22.4031 32.3791C22.4235 32.0106 22.4265 31.6217 22.482 31.2854H22.4791Z" fill="#FFA31D"/>
<path fill-rule="evenodd" clip-rule="evenodd" d="M22.403 32.73C24.4061 33.2739 27.4269 33.4903 29.5032 32.9639C29.5207 33.3499 29.5353 33.5605 29.5032 33.9406C27.5 34.429 24.4032 34.4261 22.441 33.9026C22.4352 33.5049 22.3767 33.1598 22.403 32.7329V32.73Z" fill="#7A4141"/>
<path fill-rule="evenodd" clip-rule="evenodd" d="M18.5781 34.1716C18.312 35.2624 18.9845 36.8912 18.2272 37.4117C17.616 36.438 17.5633 34.7185 18.5781 34.1716Z" fill="white"/>
<path fill-rule="evenodd" clip-rule="evenodd" d="M34.0301 36.748C33.147 36.6808 33.3429 35.1982 33.0154 34.4466C33.1148 34.3764 33.2172 34.3121 33.3663 34.2916C33.8839 34.8531 34.381 35.6543 34.0301 36.751V36.748Z" fill="white"/>
<path fill-rule="evenodd" clip-rule="evenodd" d="M29.3482 34.3677C29.5295 34.508 29.2809 34.8648 29.3101 35.1104C27.655 35.9439 24.5728 36.2129 22.6369 35.4614C22.5112 35.1836 22.555 34.7361 22.4819 34.4086C24.4851 34.8385 27.3889 34.8297 29.3482 34.3706V34.3677Z" fill="#FFA31D"/>
<path fill-rule="evenodd" clip-rule="evenodd" d="M29.0733 35.6543C29.1873 35.9789 28.7984 36.4672 28.6844 36.824C28.1902 37.0667 27.3421 37.2802 26.421 37.3299C25.4179 37.3884 24.0494 37.3621 23.4557 36.979C23.0463 36.7129 23.0054 36.2479 22.7539 35.8853C24.4441 36.3971 27.5234 36.4585 29.0762 35.6514L29.0733 35.6543Z" fill="#7A4141"/>
<path fill-rule="evenodd" clip-rule="evenodd" d="M23.8066 22.3898C24.4354 21.9716 24.7804 20.5884 24.1956 19.8544C24.5962 19.4187 26.0028 19.1497 26.459 19.6994C26.0408 20.4276 26.2747 21.5242 26.7309 21.9628C26.8303 22.0564 27.0672 22.0798 27.0029 22.1968C25.9999 21.9102 24.681 22.1763 23.8037 22.3927L23.8066 22.3898Z" fill="#FFA31D"/>
<path fill-rule="evenodd" clip-rule="evenodd" d="M23.5347 22.1148C23.3885 22.0271 23.33 21.8517 23.3008 21.647C23.4031 21.647 23.523 21.6616 23.5727 21.6089C23.7774 21.6089 24.0114 20.7638 24.0026 20.9071C24.0728 21.5358 23.7891 21.8136 23.5347 22.1178V22.1148Z" fill="white"/>
<path fill-rule="evenodd" clip-rule="evenodd" d="M30.4009 21.0621C30.5764 21.5095 30.1465 21.8809 29.8921 22.1558C29.6113 22.4629 29.2283 22.7027 28.9563 22.9366C29.047 22.3839 29.5938 21.9687 29.971 21.5329C30.1114 21.3692 30.1816 21.0885 30.4009 21.0651V21.0621Z" fill="white"/>
<path fill-rule="evenodd" clip-rule="evenodd" d="M26.772 21.2581C26.9299 21.2698 27.2282 21.6411 27.5908 21.454C27.5849 21.5651 27.6112 21.7084 27.5528 21.7669C27.0936 21.7961 26.9708 21.4891 26.772 21.261V21.2581Z" fill="white"/>
<path fill-rule="evenodd" clip-rule="evenodd" d="M14.3643 26.2907C16.5224 26.9662 20.3824 26.2907 22.754 25.9398H22.833C21.5024 26.3434 19.5344 27.0598 17.7594 27.1885C16.3586 27.2908 15.1948 26.9048 14.3643 26.2907Z" fill="white"/>
<path fill-rule="evenodd" clip-rule="evenodd" d="M21.8152 29.2939C21.3532 29.8496 20.7742 30.4315 20.3706 31.1655C19.9612 31.9112 19.7156 32.7504 19.2389 33.4289C19.0459 33.3996 18.8178 33.4084 18.6541 33.3499C18.7389 32.2972 19.4846 31.4667 20.0987 30.8526C20.6718 30.2794 21.2362 29.7238 21.8152 29.291V29.2939Z" fill="white"/>
<path fill-rule="evenodd" clip-rule="evenodd" d="M28.3335 37.4498C27.9446 37.7949 27.6025 38.7336 27.0849 39.0874C26.8889 39.2219 26.6199 39.1752 26.538 39.4383C25.7455 39.491 25.1665 39.1196 24.9384 38.7365C25.5408 38.8359 26.4386 38.9471 27.0059 38.7365C26.2427 38.4412 25.2104 38.7541 24.5875 38.3856C24.2191 38.1692 24.2629 37.7569 23.9237 37.5288C25.0466 37.751 27.2077 37.8855 28.3335 37.4498Z" fill="#FFA31D"/>
</svg>
