<svg width="53" height="53" viewBox="0 0 53 53" fill="none" xmlns="http://www.w3.org/2000/svg">
<path d="M53 26.5C53 41.1355 41.1355 53 26.5 53C11.8645 53 0 41.1355 0 26.5C0 11.8645 11.8645 0 26.5 0C41.1355 0 53 11.8645 53 26.5Z" fill="white"/>
<path fill-rule="evenodd" clip-rule="evenodd" d="M38.4819 32.274C38.6917 28.7967 34.8497 26.781 32.8167 25.5614C32.3598 24.3604 31.4972 23.5597 30.5507 22.8475C31.5485 21.046 30.0751 19.0582 28.5131 18.6253C28.8628 17.2893 29.1006 15.4412 30.0238 14.9292C29.9865 15.4179 30.0285 15.8276 30.2523 16.0604C31.8143 16.861 31.9308 14.3612 30.8584 14.0261C28.2426 13.6863 28.4058 16.7493 27.6085 18.4763C27.1469 18.4205 26.8998 18.5741 26.4755 18.5508C26.4522 16.484 25.6595 15.1945 24.4379 14.3287C23.3748 14.2356 22.4656 14.459 22.1718 15.2317C21.8781 16.0045 22.2045 17.294 23.0018 17.266C24.2933 17.2288 23.3002 15.511 23.8317 15.0781C25.2539 15.5436 25.4357 17.2474 25.7201 18.8488C24.284 19.1793 23.6872 21.3718 24.284 22.9964C23.2629 23.2059 22.8666 24.3511 22.0926 24.8818C21.4398 25.3333 20.5026 25.4916 19.7519 25.9385C17.2201 27.4374 14.5437 29.2575 15.0659 33.3307C15.1545 34.0337 16.1523 35.1649 16.6512 35.4442C18.3577 36.3845 20.1016 35.2114 21.3325 34.2385C21.6543 35.8771 22.7593 36.6964 23.8271 37.7065C24.6757 38.5119 25.3005 39.1543 26.4708 39.2893C30.3642 39.7455 31.6744 36.594 32.9659 34.2385C33.8425 34.8576 35.2367 35.7467 36.8173 35.2207C37.8431 34.8762 38.4073 33.4937 38.4772 32.2787L38.4819 32.274Z" fill="#492727"/>
<path fill-rule="evenodd" clip-rule="evenodd" d="M29.2683 22.3216C28.1213 21.8048 26.6572 22.3262 25.4915 22.4705C25.2398 21.7629 25.3657 20.7807 25.72 20.3571C26.8577 18.9839 30.6392 20.52 29.2683 22.3169V22.3216Z" fill="#FFA31D"/>
<path fill-rule="evenodd" clip-rule="evenodd" d="M30.1732 24.3559C28.5412 24.5049 26.8114 24.0906 25.1141 24.0533C26.443 22.857 28.9515 23.5599 30.1732 24.3559Z" fill="#FFA31D"/>
<path fill-rule="evenodd" clip-rule="evenodd" d="M23.7524 25.4869C23.2395 26.0549 22.5214 26.418 22.2417 27.2233C22.9224 26.9719 23.6871 26.1526 24.4331 25.715C24.1347 28.5965 22.5401 31.8551 20.5071 33.6334C19.7751 34.2758 18.5348 34.7971 17.0334 34.5364C16.4366 33.8428 15.975 32.8466 16.2781 31.5199C16.7677 29.3739 19.3881 27.2838 21.6402 26.1666C22.4422 25.7662 22.9224 25.2868 23.757 25.4869H23.7524ZM18.3157 31.6689C18.7167 31.7853 18.9125 31.2546 19.1456 30.9893C19.7518 30.3003 20.4465 29.6346 20.8056 28.8014C20.8475 28.8014 20.8895 28.7408 20.8056 28.7269C19.8264 29.5089 18.712 30.5563 18.311 31.6689H18.3157Z" fill="white"/>
<path fill-rule="evenodd" clip-rule="evenodd" d="M25.4917 25.7151C26.5128 25.9059 27.6039 26.0177 28.7416 26.0922C28.8302 26.3296 28.9981 26.4925 29.0447 26.7718H25.4171C25.5337 26.5111 25.4824 26.0828 25.4917 25.7151Z" fill="#FFA31D"/>
<path fill-rule="evenodd" clip-rule="evenodd" d="M31.8375 26.3156C31.8375 26.2411 31.9307 26.2551 31.9867 26.2411C33.1104 26.9812 34.5139 27.7959 35.6889 28.955C36.3836 29.644 37.3534 30.8496 37.1996 32.1996C37.0644 33.396 35.8148 34.2432 34.1782 33.7079C33.7259 33.5589 33.0778 32.9444 32.742 32.5767C31.4085 31.1103 30.7231 28.3033 29.9491 26.5437C31.0169 25.8454 31.4785 26.8881 32.066 27.5259C33.1057 28.6617 34.2201 30.4307 35.162 31.4455C34.705 29.3879 33.1384 27.7866 31.8375 26.3156Z" fill="white"/>
<path fill-rule="evenodd" clip-rule="evenodd" d="M29.646 29.1833C30.0097 30.0026 30.4061 30.7893 30.7791 31.5946C28.112 31.6924 25.9579 31.2781 23.8317 30.8405C24.0322 30.2353 24.2653 29.6628 24.587 29.1833H29.646Z" fill="#FFA31D"/>
<path fill-rule="evenodd" clip-rule="evenodd" d="M31.3852 33.8568C31.3106 34.1873 31.1241 34.4014 31.0075 34.6854C28.098 34.5224 24.7549 34.7924 22.5494 33.9312C22.3536 33.3913 22.4049 32.9537 22.6986 32.572C25.1745 33.4192 28.0561 33.8568 31.3852 33.8521V33.8568Z" fill="#FFA31D"/>
<path fill-rule="evenodd" clip-rule="evenodd" d="M24.7362 36.4219C26.2982 36.5848 27.7903 36.3986 29.4176 36.4219C29.5015 36.6267 29.0958 37.0038 28.8114 37.176C27.2867 38.0884 25.3051 37.8836 24.7316 36.4219H24.7362Z" fill="#FFA31D"/>
</svg>
